<?xml version="1.0" encoding="UTF-8"?><svg id="Layer_1" xmlns="http://www.w3.org/2000/svg" viewBox="0 0 714.309 93.331"><defs><style>.cls-1{fill:#d1d3d4;}.cls-2{fill:#231f20;}</style></defs><path class="cls-1" d="M30.246,28.916c6.97,0,10.455,2.916,10.455,8.747,0,1.95-.367,3.571-1.1,4.865-.734,1.294-1.837,2.256-3.312,2.885-1.475.63-3.343.945-5.603.945h-8.902v-17.442h8.462ZM3.125,28.709h1.165l5.667,3.442v27.872l-5.667,3.545h-1.268v.647h25.698v-.647h-1.165l-5.771-3.494v-12.758h8.048l9.963,16.899h18.167v-.647h-1.527l-5.771-3.545-6.47-11.024h-3.39c-1.035,0-2.17-.078-3.403-.233-1.234-.155-2.471-.397-3.714-.725-.501-.12-1.13-.345-1.889-.673v-.104c3.226-.052,6.146-.293,8.76-.725,2.614-.431,4.801-1.044,6.56-1.837,1.76-.793,3.088-1.764,3.985-2.911.897-1.147,1.346-2.437,1.346-3.869,0-1.346-.419-2.635-1.255-3.869-.837-1.233-2.006-2.273-3.507-3.118-1.484-.863-3.485-1.557-6.004-2.083-2.519-.526-5.124-.789-7.815-.789H3.125v.647h0ZM61.585,28.709h1.32l5.797,3.494v27.872l-5.616,3.494h-1.346v.647h43.373l.725-14.725h-.466l-.104,1.165-11.568,12.655h-13.354v-17.442h6.004l6.884,5.564v2.821h.569v-18.607h-.621v2.07l-6.961,7.22h-5.823v-15.916h13.25l11.076,11.335v.958h.543v-13.25h-43.684v.647h0ZM161.503,61.989c-1.208-.983-1.812-1.975-1.812-2.976v-7.35l5.667-3.571h1.165v-.621h-25.387v.621h1.165l5.719,3.571v6.185c0,1.76-.789,3.144-2.368,4.154s-3.774,1.514-6.586,1.514c-5.279,0-9.075-1.958-11.387-5.875-.483-.776-.928-1.794-1.333-3.054-.406-1.259-.716-2.618-.932-4.076-.216-1.458-.323-2.808-.323-4.05,0-3.968.56-7.41,1.682-10.326.518-1.484,1.44-2.915,2.769-4.296.932-.949,2.074-1.691,3.429-2.226,1.354-.535,2.756-.802,4.205-.802,2.381,0,4.744.457,7.091,1.372,2.346.915,4.641,2.295,6.884,4.141,1.259,1.018,2.303,1.967,3.131,2.847s1.803,2.105,2.924,3.675h.569l-.259-13.25h-.75l-.958.673c-1.57,1.139-2.791,1.937-3.662,2.394-.871.457-1.609.686-2.213.686-.587,0-1.553-.353-2.898-1.061-1.311-.69-2.545-1.233-3.701-1.63-1.156-.397-2.329-.69-3.52-.88-1.19-.19-2.519-.285-3.985-.285-3.175,0-6.168.462-8.98,1.385-2.812.923-5.348,2.282-7.608,4.076-1.57,1.26-2.911,2.623-4.024,4.089-1.113,1.467-1.963,2.989-2.549,4.568-.587,1.579-.88,3.179-.88,4.801,0,2.467.681,4.878,2.044,7.233,1.363,2.355,3.278,4.412,5.745,6.172,2.26,1.604,4.895,2.838,7.906,3.701,3.01.863,6.111,1.294,9.303,1.294,1.294,0,2.467-.065,3.52-.194,1.052-.129,2.169-.341,3.351-.634,1.182-.293,2.73-.725,4.645-1.294,1.777-.552,3.243-.958,4.399-1.216,1.156-.259,2.191-.388,3.105-.388s1.708.091,2.381.272,1.475.496,2.407.945l.311.155.259.129.336-.595h0ZM170.354,28.709h1.268l5.667,3.494v27.872l-5.616,3.494h-1.268v.647h25.439v-.647h-1.268l-5.564-3.39v-28.027l5.667-3.442h1.165v-.647h-25.491v.647h0ZM221.879,51.016c2.26.207,4.231.449,5.913.725,1.682.276,2.894.543,3.636.802,1.259.501,2.251,1.087,2.976,1.76.914.88,1.372,1.958,1.372,3.235,0,1.76-.824,3.179-2.471,4.257-1.648,1.078-3.826,1.617-6.534,1.617-1.95,0-3.959-.254-6.03-.763-2.07-.509-4.128-1.251-6.172-2.226-2.044-.974-4.007-2.169-5.887-3.584-1.777-1.294-3.752-3.148-5.926-5.564h-.802v13.25h.75l1.009-.725c.207-.155.401-.298.582-.427s.306-.22.375-.272c1.639-1.173,2.834-1.971,3.584-2.394.75-.423,1.393-.634,1.928-.634.69,0,1.958.423,3.804,1.268,1.656.794,3.17,1.423,4.542,1.889s2.708.807,4.011,1.022c1.302.216,2.695.323,4.179.323,2.588,0,4.887-.345,6.897-1.035,2.01-.69,3.679-1.699,5.008-3.028,1.07-1.07,1.906-2.329,2.51-3.778.604-1.449.906-2.933.906-4.451,0-3.468-1.492-6.314-4.477-8.54-1.501-1.139-3.252-2.014-5.253-2.627-2.002-.612-4.874-1.16-8.618-1.643l-2.019-.285c-.104-.017-.268-.039-.492-.065-.224-.026-.444-.052-.66-.078-.216-.026-.453-.047-.712-.065-1.915-.207-3.658-.448-5.228-.725-1.57-.276-2.666-.526-3.287-.75-1.19-.414-2.096-.932-2.717-1.553-.846-.776-1.268-1.639-1.268-2.588,0-.966.375-1.841,1.126-2.627.75-.785,1.794-1.393,3.131-1.824,1.337-.431,2.851-.647,4.542-.647,1.794,0,3.623.233,5.486.699s3.718,1.139,5.564,2.019c1.846.88,3.64,1.958,5.383,3.235.828.587,1.626,1.234,2.394,1.941.767.708,1.721,1.665,2.86,2.873h.569v-11.697h-.621l-.906.673c-2.726,2.157-4.71,3.235-5.952,3.235-.604,0-1.604-.353-3.002-1.061-4.02-1.984-7.91-2.976-11.671-2.976-2.761,0-5.318.539-7.673,1.617-2.355,1.078-4.21,2.532-5.564,4.361-1.355,1.829-2.031,3.813-2.031,5.952,0,1.449.353,2.825,1.061,4.128.707,1.303,1.716,2.454,3.028,3.455.914.69,1.988,1.29,3.222,1.799,1.233.509,2.743.941,4.529,1.294,1.786.354,4.11.686,6.974.996l1.061.104c.379.069.733.104,1.061.104h0ZM247.603,44.133h.673v-1.32l11.62-13.845h3.908v31.055l-5.823,3.545h-1.475v.647h26.267v-.647h-1.682l-5.564-3.442v-31.158h3.856l11.62,13.949v1.268h.621v-16.123h-44.02v16.071h0ZM297.937,28.709h1.32l5.797,3.494v27.872l-5.616,3.494h-1.346v.647h43.373l.725-14.725h-.466l-.104,1.165-11.568,12.655h-13.354v-17.442h6.004l6.884,5.564v2.821h.569v-18.607h-.621v2.07l-6.961,7.22h-5.823v-15.916h13.25l11.076,11.335v.958h.543v-13.25h-43.684v.647h0ZM374.306,28.916c6.97,0,10.455,2.916,10.455,8.747,0,1.95-.367,3.571-1.1,4.865-.733,1.294-1.837,2.256-3.312,2.885-1.475.63-3.343.945-5.603.945h-8.902v-17.442h8.462ZM347.185,28.709h1.165l5.667,3.442v27.872l-5.667,3.545h-1.268v.647h25.698v-.647h-1.165l-5.771-3.494v-12.758h8.048l9.963,16.899h18.167v-.647h-1.527l-5.771-3.545-6.47-11.024h-3.39c-1.035,0-2.17-.078-3.403-.233-1.234-.155-2.471-.397-3.714-.725-.501-.12-1.13-.345-1.889-.673v-.104c3.226-.052,6.146-.293,8.76-.725,2.614-.431,4.801-1.044,6.56-1.837,1.76-.793,3.088-1.764,3.985-2.911.897-1.147,1.346-2.437,1.346-3.869,0-1.346-.419-2.635-1.255-3.869-.837-1.233-2.006-2.273-3.507-3.118-1.484-.863-3.485-1.557-6.004-2.083-2.519-.526-5.124-.789-7.815-.789h-30.744v.647h0Z"/><polygon class="cls-1" points="423.344 28.709 424.664 28.709 430.513 32.254 430.513 60.126 424.897 63.568 423.5 63.568 423.5 64.215 449.223 64.215 449.223 63.568 447.878 63.568 442.21 60.126 442.21 45.867 447.619 45.867 454.503 51.87 454.503 53.786 455.15 53.786 455.15 37.249 454.503 37.249 454.503 38.983 447.567 45.038 442.21 45.038 442.21 29.019 454.839 29.019 466.226 40.406 466.226 41.312 466.769 41.312 466.381 28.062 423.344 28.062 423.344 28.709 423.344 28.709"/><path class="cls-1" d="M506.411,30.016c1.682,1.044,2.898,2.756,3.649,5.137s1.126,5.599,1.126,9.653c0,2.139-.069,4.167-.207,6.082-.138,1.915-.319,3.39-.543,4.425-.362,1.536-.837,2.769-1.423,3.701-.915,1.518-2.161,2.649-3.74,3.39-1.579.742-3.532,1.113-5.862,1.113-3.727,0-6.496-.793-8.307-2.381-1.588-1.294-2.666-3.183-3.235-5.667-.207-1.018-.367-2.281-.479-3.791-.112-1.51-.168-2.86-.168-4.05,0-2.191.073-4.274.22-6.25.146-1.975.34-3.549.582-4.723.311-1.397.785-2.666,1.423-3.804.914-1.518,2.169-2.631,3.765-3.338,1.596-.707,3.696-1.061,6.302-1.061,2.915,0,5.215.522,6.897,1.566h0ZM489.305,28.786c-2.993,1.001-5.655,2.39-7.984,4.167-2.329,1.777-4.154,3.809-5.473,6.094-1.32,2.286-1.98,4.654-1.98,7.104,0,3.261,1.143,6.314,3.429,9.161,2.286,2.847,5.37,5.111,9.252,6.793s8.048,2.523,12.5,2.523c4.537,0,8.756-.841,12.655-2.523,3.899-1.682,6.987-3.959,9.265-6.832s3.416-6.008,3.416-9.407c0-1.949-.431-3.869-1.294-5.758-.863-1.889-2.096-3.627-3.701-5.215-2.45-2.467-5.46-4.352-9.032-5.655-3.571-1.302-7.471-1.954-11.697-1.954-3.244,0-6.362.501-9.355,1.501h0ZM558.777,28.916c6.97,0,10.455,2.916,10.455,8.747,0,1.95-.367,3.571-1.1,4.865-.734,1.294-1.837,2.256-3.312,2.885-1.475.63-3.343.945-5.603.945h-8.902v-17.442h8.462ZM531.656,28.709h1.165l5.667,3.442v27.872l-5.667,3.545h-1.268v.647h25.698v-.647h-1.165l-5.771-3.494v-12.758h8.048l9.963,16.899h18.167v-.647h-1.527l-5.771-3.545-6.47-11.024h-3.39c-1.035,0-2.17-.078-3.403-.233-1.234-.155-2.471-.397-3.714-.725-.501-.12-1.13-.345-1.889-.673v-.104c3.226-.052,6.146-.293,8.76-.725,2.614-.431,4.801-1.044,6.56-1.837,1.76-.793,3.088-1.764,3.985-2.911.897-1.147,1.346-2.437,1.346-3.869,0-1.346-.419-2.635-1.255-3.869-.837-1.233-2.006-2.273-3.507-3.118-1.484-.863-3.485-1.557-6.004-2.083-2.519-.526-5.124-.789-7.815-.789h-30.744v.647h0ZM590.919,28.709h1.216l5.719,3.494v16.588c0,2.122.298,3.994.893,5.616.595,1.622,1.54,3.089,2.834,4.399,1.88,1.932,4.279,3.416,7.194,4.451,2.915,1.035,6.185,1.553,9.808,1.553,3.916,0,7.276-.608,10.08-1.824,2.803-1.216,4.951-2.98,6.444-5.292,1.492-2.312,2.239-5.029,2.239-8.152v-12.344l5.616-8.488h1.527v-.647h-15.476v.647h1.604l5.719,8.695v12.81c0,1.881-.384,3.653-1.152,5.318-.768,1.665-1.85,3.105-3.248,4.322s-3.05,2.161-4.956,2.834c-1.907.673-3.964,1.009-6.172,1.009-3.503,0-6.241-.875-8.217-2.627-1.976-1.751-2.963-4.162-2.963-7.233v-21.687l5.616-3.442h1.372v-.647h-25.698v.647h0ZM649.379,28.709h1.656l5.719,2.976v23.317l-5.719,8.566h-1.604v.647h15.527v-.647h-1.527l-5.719-8.566v-22.385h.104l18.503,31.598h.906l18.374-33.591h.104v29.45l-5.667,3.494h-1.268v.647h25.542v-.647h-1.268l-5.667-3.494v-27.872l5.719-3.494h1.216v-.647h-18.271l-13.379,24.43-14.466-24.43h-18.814v.647h0Z"/><path class="cls-2" d="M27.225,28.227c6.97,0,10.455,2.916,10.455,8.747,0,1.95-.367,3.571-1.1,4.865-.734,1.294-1.837,2.256-3.312,2.885-1.475.63-3.343.945-5.603.945h-8.902v-17.442h8.462ZM.104,28.02h1.165l5.667,3.442v27.872l-5.667,3.545H0v.647h25.698v-.647h-1.165l-5.771-3.494v-12.758h8.048l9.963,16.899h18.167v-.647h-1.527l-5.771-3.545-6.47-11.024h-3.39c-1.035,0-2.17-.078-3.403-.233-1.234-.155-2.471-.397-3.714-.725-.501-.12-1.13-.345-1.889-.673v-.104c3.226-.052,6.146-.293,8.76-.725,2.614-.431,4.801-1.044,6.56-1.837,1.76-.793,3.088-1.764,3.985-2.911.897-1.147,1.346-2.437,1.346-3.869,0-1.346-.419-2.635-1.255-3.869-.837-1.233-2.006-2.273-3.507-3.118-1.484-.862-3.485-1.557-6.004-2.083-2.519-.526-5.124-.789-7.815-.789H.104v.647H.104ZM58.564,28.02h1.32l5.797,3.494v27.872l-5.616,3.494h-1.346v.647h43.373l.725-14.725h-.466l-.104,1.165-11.568,12.655h-13.354v-17.442h6.004l6.884,5.564v2.821h.569v-18.607h-.621v2.07l-6.961,7.22h-5.823v-15.916h13.25l11.076,11.335v.958h.543v-13.25h-43.684v.647h0ZM158.482,61.3c-1.208-.983-1.812-1.975-1.812-2.976v-7.35l5.667-3.571h1.165v-.621h-25.387v.621h1.165l5.719,3.571v6.185c0,1.76-.789,3.144-2.368,4.154s-3.774,1.514-6.586,1.514c-5.279,0-9.075-1.958-11.387-5.875-.483-.776-.928-1.794-1.333-3.054-.406-1.259-.716-2.618-.932-4.076-.216-1.458-.323-2.808-.323-4.05,0-3.968.56-7.41,1.682-10.326.518-1.484,1.44-2.915,2.769-4.296.932-.949,2.074-1.691,3.429-2.226,1.354-.535,2.756-.802,4.205-.802,2.381,0,4.744.457,7.091,1.372,2.346.915,4.641,2.295,6.884,4.141,1.259,1.018,2.303,1.967,3.131,2.847s1.803,2.105,2.924,3.675h.569l-.259-13.25h-.75l-.958.673c-1.57,1.139-2.791,1.937-3.662,2.394-.871.457-1.609.686-2.213.686-.587,0-1.553-.353-2.898-1.061-1.311-.69-2.545-1.233-3.701-1.63-1.156-.397-2.329-.69-3.52-.88-1.19-.19-2.519-.285-3.985-.285-3.175,0-6.168.462-8.98,1.385-2.812.923-5.348,2.282-7.608,4.076-1.57,1.26-2.911,2.623-4.024,4.089-1.113,1.467-1.963,2.989-2.549,4.568-.587,1.579-.88,3.179-.88,4.801,0,2.467.681,4.878,2.044,7.233,1.363,2.355,3.278,4.412,5.745,6.172,2.26,1.604,4.895,2.838,7.906,3.701,3.01.862,6.111,1.294,9.303,1.294,1.294,0,2.467-.065,3.52-.194,1.052-.129,2.169-.341,3.351-.634,1.182-.293,2.73-.725,4.645-1.294,1.777-.552,3.243-.958,4.399-1.216,1.156-.259,2.191-.388,3.105-.388s1.708.091,2.381.272,1.475.496,2.407.945l.311.155.259.129.336-.595h0ZM167.333,28.02h1.268l5.667,3.494v27.872l-5.616,3.494h-1.268v.647h25.439v-.647h-1.268l-5.564-3.39v-28.027l5.667-3.442h1.165v-.647h-25.491v.647h0ZM218.858,50.328c2.26.207,4.231.449,5.913.725,1.682.276,2.894.543,3.636.802,1.259.501,2.251,1.087,2.976,1.76.914.88,1.372,1.958,1.372,3.235,0,1.76-.824,3.179-2.471,4.257-1.648,1.078-3.826,1.617-6.534,1.617-1.95,0-3.959-.254-6.03-.763-2.07-.509-4.128-1.251-6.172-2.226-2.044-.974-4.007-2.169-5.887-3.584-1.777-1.294-3.752-3.148-5.926-5.564h-.802v13.25h.75l1.009-.725c.207-.155.401-.298.582-.427s.306-.22.375-.272c1.639-1.173,2.834-1.971,3.584-2.394.75-.422,1.393-.634,1.928-.634.69,0,1.958.423,3.804,1.268,1.656.794,3.17,1.423,4.542,1.889s2.708.807,4.011,1.022c1.302.215,2.695.323,4.179.323,2.588,0,4.887-.345,6.897-1.035,2.01-.69,3.679-1.699,5.008-3.028,1.07-1.069,1.906-2.329,2.51-3.778.604-1.449.906-2.933.906-4.451,0-3.468-1.492-6.314-4.477-8.54-1.501-1.139-3.252-2.014-5.253-2.627-2.002-.612-4.874-1.16-8.618-1.643l-2.019-.285c-.104-.017-.268-.039-.492-.065-.224-.026-.444-.052-.66-.078-.216-.026-.453-.047-.712-.065-1.915-.207-3.658-.448-5.228-.725-1.57-.276-2.666-.526-3.287-.75-1.19-.414-2.096-.932-2.717-1.553-.846-.776-1.268-1.639-1.268-2.588,0-.966.375-1.841,1.126-2.627.75-.785,1.794-1.393,3.131-1.824,1.337-.431,2.851-.647,4.542-.647,1.794,0,3.623.233,5.486.699s3.718,1.139,5.564,2.019c1.846.88,3.64,1.958,5.383,3.235.828.587,1.626,1.234,2.394,1.941.767.708,1.721,1.665,2.86,2.873h.569v-11.697h-.621l-.906.673c-2.726,2.157-4.71,3.235-5.952,3.235-.604,0-1.604-.353-3.002-1.061-4.02-1.984-7.91-2.976-11.671-2.976-2.761,0-5.318.539-7.673,1.617-2.355,1.078-4.21,2.532-5.564,4.361-1.355,1.829-2.031,3.813-2.031,5.952,0,1.449.353,2.825,1.061,4.128.707,1.303,1.716,2.454,3.028,3.455.914.69,1.988,1.29,3.222,1.799,1.233.509,2.743.941,4.529,1.294,1.786.354,4.11.686,6.974.996l1.061.104c.379.069.733.104,1.061.104h0ZM244.582,43.444h.673v-1.32l11.62-13.845h3.908v31.055l-5.823,3.545h-1.475v.647h26.267v-.647h-1.682l-5.564-3.442v-31.158h3.856l11.62,13.949v1.268h.621v-16.123h-44.02v16.071h0ZM294.916,28.02h1.32l5.797,3.494v27.872l-5.616,3.494h-1.346v.647h43.373l.725-14.725h-.466l-.104,1.165-11.568,12.655h-13.354v-17.442h6.004l6.884,5.564v2.821h.569v-18.607h-.621v2.07l-6.961,7.22h-5.823v-15.916h13.25l11.076,11.335v.958h.543v-13.25h-43.684v.647h0ZM371.285,28.227c6.97,0,10.455,2.916,10.455,8.747,0,1.95-.367,3.571-1.1,4.865-.733,1.294-1.837,2.256-3.312,2.885-1.475.63-3.343.945-5.603.945h-8.902v-17.442h8.462ZM344.164,28.02h1.165l5.667,3.442v27.872l-5.667,3.545h-1.268v.647h25.698v-.647h-1.165l-5.771-3.494v-12.758h8.048l9.963,16.899h18.167v-.647h-1.527l-5.771-3.545-6.47-11.024h-3.39c-1.035,0-2.17-.078-3.403-.233-1.234-.155-2.471-.397-3.714-.725-.501-.12-1.13-.345-1.889-.673v-.104c3.226-.052,6.146-.293,8.76-.725,2.614-.431,4.801-1.044,6.56-1.837,1.76-.793,3.088-1.764,3.985-2.911.897-1.147,1.346-2.437,1.346-3.869,0-1.346-.419-2.635-1.255-3.869-.837-1.233-2.006-2.273-3.507-3.118-1.484-.862-3.485-1.557-6.004-2.083-2.519-.526-5.124-.789-7.815-.789h-30.744v.647h0ZM421.749,28.02h1.32l5.849,3.545v27.872l-5.616,3.442h-1.397v.647h25.724v-.647h-1.346l-5.667-3.442v-14.259h5.409l6.884,6.004v1.915h.647v-16.537h-.647v1.734l-6.936,6.056h-5.357v-16.019h12.629l11.387,11.387v.906h.543l-.388-13.25h-43.037v.647h0ZM504.807,29.327c1.682,1.044,2.898,2.756,3.649,5.137s1.126,5.599,1.126,9.653c0,2.14-.069,4.167-.207,6.082-.138,1.915-.319,3.39-.543,4.425-.362,1.536-.837,2.769-1.423,3.701-.915,1.518-2.161,2.649-3.74,3.39-1.579.742-3.532,1.113-5.862,1.113-3.727,0-6.496-.793-8.307-2.381-1.587-1.294-2.666-3.183-3.235-5.667-.207-1.018-.367-2.281-.479-3.791-.112-1.509-.168-2.86-.168-4.05,0-2.191.073-4.274.22-6.25.146-1.975.341-3.549.582-4.723.311-1.397.785-2.666,1.423-3.804.914-1.518,2.169-2.631,3.765-3.338,1.596-.707,3.696-1.061,6.302-1.061,2.915,0,5.215.522,6.897,1.566h0ZM487.701,28.098c-2.993,1.001-5.655,2.39-7.984,4.167-2.329,1.777-4.154,3.809-5.473,6.094-1.32,2.286-1.98,4.654-1.98,7.104,0,3.261,1.143,6.314,3.429,9.161,2.286,2.847,5.37,5.111,9.252,6.793s8.048,2.523,12.5,2.523c4.537,0,8.756-.841,12.655-2.523,3.899-1.682,6.987-3.959,9.265-6.832s3.416-6.008,3.416-9.407c0-1.949-.431-3.869-1.294-5.758-.863-1.889-2.096-3.627-3.701-5.215-2.45-2.467-5.46-4.352-9.032-5.655-3.571-1.302-7.47-1.954-11.697-1.954-3.244,0-6.362.501-9.355,1.501h0ZM557.173,28.227c6.97,0,10.455,2.916,10.455,8.747,0,1.95-.367,3.571-1.1,4.865-.734,1.294-1.837,2.256-3.312,2.885-1.475.63-3.343.945-5.603.945h-8.902v-17.442h8.462ZM530.052,28.02h1.165l5.667,3.442v27.872l-5.667,3.545h-1.268v.647h25.698v-.647h-1.165l-5.771-3.494v-12.758h8.048l9.963,16.899h18.167v-.647h-1.527l-5.771-3.545-6.47-11.024h-3.39c-1.035,0-2.17-.078-3.403-.233-1.234-.155-2.471-.397-3.714-.725-.501-.12-1.13-.345-1.889-.673v-.104c3.226-.052,6.146-.293,8.76-.725,2.614-.431,4.801-1.044,6.56-1.837,1.76-.793,3.088-1.764,3.985-2.911.897-1.147,1.346-2.437,1.346-3.869,0-1.346-.419-2.635-1.255-3.869-.837-1.233-2.006-2.273-3.507-3.118-1.484-.862-3.485-1.557-6.004-2.083-2.519-.526-5.124-.789-7.815-.789h-30.744v.647h0ZM589.314,28.02h1.216l5.719,3.494v16.588c0,2.122.298,3.994.893,5.616.595,1.622,1.54,3.089,2.834,4.399,1.88,1.932,4.279,3.416,7.194,4.451,2.915,1.035,6.185,1.553,9.808,1.553,3.916,0,7.276-.608,10.08-1.824,2.803-1.216,4.951-2.98,6.444-5.292,1.492-2.312,2.239-5.029,2.239-8.152v-12.344l5.616-8.488h1.527v-.647h-15.476v.647h1.604l5.719,8.695v12.81c0,1.881-.384,3.653-1.152,5.318-.768,1.665-1.85,3.105-3.248,4.322s-3.05,2.161-4.956,2.834c-1.907.673-3.964,1.009-6.172,1.009-3.503,0-6.241-.875-8.217-2.627-1.976-1.751-2.963-4.162-2.963-7.233v-21.687l5.616-3.442h1.372v-.647h-25.698v.647h0ZM647.775,28.02h1.656l5.719,2.976v23.317l-5.719,8.566h-1.604v.647h15.527v-.647h-1.527l-5.719-8.566v-22.385h.104l18.503,31.598h.906l18.374-33.591h.104v29.45l-5.667,3.494h-1.268v.647h25.542v-.647h-1.268l-5.667-3.494v-27.872l5.719-3.494h1.216v-.647h-18.271l-13.379,24.43-14.466-24.43h-18.814v.647h0Z"/><path class="cls-2" d="M369.972.691c-1.664,0-3.398.395-5.203,1.184-2.164-.445-3.523-.711-4.078-.797-.523-.078-1.102-.117-1.734-.117-1.227,0-2.313.137-3.258.41-.679-.914-1.671-1.371-2.975-1.371-1.679,0-3.287.767-4.825,2.301-.64.642-.96,1.029-.96,1.162.016.047.047.07.094.07.039,0,.113-.074.222-.223.742-.963,1.602-1.724,2.582-2.284s1.95-.839,2.91-.839c1.14,0,2.018.418,2.635,1.254-1.281.32-2.459.885-3.533,1.693-1.074.809-1.949,1.754-2.625,2.836-.676,1.082-1.014,2.068-1.014,2.959,0,.649.193,1.178.58,1.588s.889.615,1.506.615c1.484,0,2.879-.754,4.184-2.262,1.305-1.508,1.957-3.121,1.957-4.84,0-.883-.184-1.668-.551-2.355.547-.031.875-.047.984-.047,1.055,0,2.574.215,4.559.645.844.188,1.477.316,1.898.387-2.195,1.039-4.301,3.207-6.316,6.504-1.234,2.031-2.242,3.488-3.023,4.371-1.664,1.891-3.543,2.836-5.637,2.836-.953,0-1.756-.219-2.408-.656-.652-.437-.979-.973-.979-1.605,0-.383.066-.574.199-.574.062,0,.094.094.094.281,0,.359.183.539.551.539.227,0,.418-.09.574-.27.156-.18.234-.394.234-.645,0-.531-.254-.797-.762-.797-.313,0-.582.137-.809.41-.227.274-.34.602-.34.984,0,.758.357,1.375,1.072,1.852s1.635.715,2.76.715c2.109,0,4.144-.727,6.105-2.18.742-.562,1.326-1.143,1.752-1.74.426-.598,1.096-1.795,2.01-3.592.914-1.797,1.77-3.185,2.566-4.166.797-.98,1.676-1.721,2.637-2.221,1.82.336,3.344.504,4.57.504,1.219,0,2.25-.146,3.094-.439s1.266-.65,1.266-1.072c0-.672-.855-1.008-2.566-1.008h0ZM371.671,2.35c-.453.176-.996.264-1.629.264-.969,0-2.078-.121-3.328-.363-.844-.156-1.363-.25-1.559-.281,1.57-.703,3.191-1.055,4.863-1.055.672,0,1.228.078,1.67.234.441.156.662.348.662.574,0,.242-.227.451-.68.627h0ZM354.081,8.455c-1.266,1.629-2.559,2.443-3.879,2.443-.508,0-.936-.191-1.283-.574-.348-.383-.521-.855-.521-1.418,0-1.469.754-2.961,2.262-4.477,1.508-1.516,3.137-2.418,4.887-2.707.289.531.434,1.109.434,1.734,0,1.703-.633,3.369-1.898,4.998h0ZM366.591,12.334c-.055,0-.102.039-.141.117l-.211.258-.364.505c-1.408,1.972-2.418,2.958-3.028,2.958-.337,0-.505-.168-.505-.504,0-.289.383-1,1.148-2.133.687-1.016,1.031-1.793,1.031-2.332,0-.414-.119-.766-.357-1.055-.238-.289-.526-.434-.861-.434-.852,0-2.012,1.09-3.48,3.27,1.164-1.937,1.77-2.945,1.816-3.023,1.609-2.602,2.82-4.555,3.633-5.859-.281.078-.578.117-.891.117-.164,0-.363-.023-.598-.07l-1.781,3.023c-1.328,2.266-2.121,3.609-2.379,4.031-.484.867-.844,1.523-1.078,1.969l-1.723,3.117c.289-.047.519-.07.691-.07.164,0,.363.023.598.07,1.367-2.461,2.441-4.133,3.223-5.016.812-.922,1.453-1.383,1.922-1.383.32,0,.48.152.48.457,0,.258-.465,1.07-1.395,2.438-.594.883-.891,1.598-.891,2.145,0,.406.119.744.358,1.014.238.27.545.404.921.404.72,0,1.815-1.021,3.285-3.063l.504-.692c.078-.078.117-.149.117-.211,0-.031-.016-.047-.047-.047h0Z"/><path class="cls-2" d="M372.523,12.346c-.063,0-.141.062-.235.187-1.791,2.41-3.304,3.615-4.54,3.615-.727,0-1.091-.336-1.091-1.008,0-.539.266-1.211.797-2.016,1.719-.344,2.945-.713,3.68-1.107.734-.394,1.102-.873,1.102-1.436,0-.242-.1-.447-.299-.615-.199-.168-.439-.252-.721-.252-.649,0-1.488.281-2.52.844-1.961,1.07-2.941,2.309-2.941,3.715,0,.594.186,1.088.557,1.482s.831.592,1.378.592c1.157,0,2.545-.998,4.164-2.996l.504-.632c.141-.179.211-.281.211-.304,0-.039-.016-.062-.047-.07h0ZM370.408,11.736c-.781.527-1.734.936-2.859,1.225.648-.914,1.31-1.658,1.986-2.232.676-.574,1.221-.861,1.635-.861.273,0,.41.125.41.375,0,.469-.391.967-1.172,1.494h0Z"/><path class="cls-2" d="M316.508,77.06c-.75-.285-1.656-.428-2.719-.428-1.43,0-2.684.262-3.762.785-2.391-.586-4.305-.879-5.742-.879-2.586,0-4.594.688-6.023,2.062-1.203,1.156-1.805,2.426-1.805,3.809,0,.922.256,1.709.768,2.361.512.652,1.131.979,1.857.979.406,0,.752-.111,1.037-.334.285-.223.428-.494.428-.814,0-.484-.25-.727-.75-.727-.258,0-.479.078-.662.234-.184.156-.275.344-.275.562,0,.383.207.574.621.574.148-.023.223,0,.223.07,0,.133-.207.199-.621.199-.602,0-1.117-.262-1.547-.785-.43-.523-.645-1.152-.645-1.887,0-1.641.814-3.039,2.443-4.195,1.629-1.156,3.599-1.734,5.912-1.734,1.18,0,2.676.219,4.488.656-1.266.688-1.898,1.543-1.898,2.566,0,.797.434,1.379,1.301,1.746-1.219.141-2.301.367-3.246.68-1.563.508-2.812,1.256-3.75,2.244-.938.988-1.406,2.049-1.406,3.182,0,.844.337,1.584,1.011,2.221.674.637,1.606,1.088,2.798,1.354.861,1.18,2.109,1.77,3.745,1.77.477,0,1.006-.061,1.585-.182.579-.121.869-.236.869-.346,0-.047-.024-.078-.07-.094l-.141.023c-.579.273-1.327.41-2.243.41-1.48,0-2.595-.504-3.347-1.512.368.047.763.07,1.185.07,2.096,0,3.982-.611,5.656-1.834,1.674-1.223,2.511-2.596,2.511-4.119,0-.711-.254-1.277-.763-1.699s-1.193-.633-2.053-.633c-1.87,0-3.59.649-5.162,1.945-1.572,1.297-2.358,2.715-2.358,4.254,0,.625.144,1.176.434,1.652-1.594-.398-2.391-1.336-2.391-2.812,0-2.227,1.463-4.039,4.388-5.438,1.15-.547,2.159-.883,3.027-1.008.641.156,1.236.234,1.783.234.43,0,.645-.062.645-.188,0-.195-.406-.293-1.219-.293-.281,0-.699.023-1.254.07-.383-.211-.574-.594-.574-1.148,0-1.148.664-2.101,1.992-2.859,2.844.703,4.644,1.055,5.402,1.055.961,0,1.441-.262,1.441-.785,0-.406-.375-.752-1.125-1.037h0ZM316.285,78.671c-1.414,0-3.156-.336-5.227-1.008.945-.5,1.992-.75,3.141-.75.836,0,1.576.117,2.221.352s.967.504.967.809c0,.398-.367.598-1.102.598h0ZM311.442,89.575c-1.76,1.277-3.563,1.916-5.409,1.916-.383,0-.802-.043-1.255-.129-.258-.437-.387-.867-.387-1.289,0-1.453.802-2.877,2.405-4.271,1.603-1.395,3.246-2.092,4.928-2.092.68,0,1.244.184,1.69.551.446.367.669.832.669,1.395,0,1.336-.88,2.643-2.64,3.92h0ZM318.875,82.796c-.266,0-.535.195-.809.586-.274.391-.477.859-.609,1.406-.469.594-.844,1.059-1.125,1.395l-.938,1.148c-.063-.031-.133-.047-.211-.047-.445,0-.877.277-1.295.832-.418.555-.627,1.125-.627,1.711,0,.508.158.912.475,1.213s.74.451,1.271.451c.938,0,1.748-.258,2.432-.773.684-.516,1.025-1.125,1.025-1.828,0-.336-.105-.75-.316-1.242-.414-.984-.621-1.703-.621-2.156,0-.18.023-.391.07-.633.977-.927,1.465-1.546,1.465-1.857,0-.137-.063-.205-.188-.205h0ZM316.549,90.079c-.59.762-1.213,1.143-1.869,1.143-.336,0-.617-.105-.844-.316-.227-.211-.34-.473-.34-.785,0-.289.111-.564.334-.826.223-.262.486-.428.791-.498.758-.164,1.137-.476,1.137-.938,0-.18-.074-.332-.223-.457.828-1.008,1.461-1.789,1.898-2.344-.031.234-.047.527-.047.879,0,.43.008.76.023.99.016.231.023.463.023.697,0,.875-.295,1.693-.885,2.455h0ZM322.567,84.859l1.348-2.273c-.234.063-.461.094-.68.094-.211,0-.434-.031-.668-.094l-1.371,2.273h-1.172l-.117.176h1.195l-1.969,3.305c-.414.703-.621,1.289-.621,1.758,0,.398.123.731.37.996s.553.398.921.398c.743,0,1.85-1.021,3.32-3.063l.504-.692c.07-.102.109-.164.117-.188,0-.047-.023-.07-.07-.07-.039,0-.086.039-.141.117-1.69,2.481-2.891,3.721-3.603,3.721-.368,0-.552-.176-.552-.527,0-.32.16-.75.48-1.289l2.613-4.465h1.535l.094-.176h-1.535ZM331.912,87.478c-.039,0-.082.039-.129.117-.712,1.049-1.412,1.931-2.101,2.647-.688.716-1.189,1.074-1.502,1.074-.305,0-.458-.183-.458-.551,0-.383.359-1.176,1.078-2.379l2.074-3.434c-.336.055-.609.082-.82.082-.18,0-.387-.027-.621-.082l-.598,1.137c.062-.219.094-.394.094-.527,0-.469-.242-.703-.727-.703-.57,0-1.32.258-2.25.773-2.117,1.156-3.176,2.484-3.176,3.984,0,.539.141.986.422,1.342s.629.533,1.043.533c.391,0,.793-.192,1.207-.574.414-.383,1.012-1.121,1.793-2.215-.25.492-.375.949-.375,1.371,0,.406.113.744.34,1.014.227.27.52.404.88.404.532,0,1.259-.556,2.182-1.667,1.142-1.354,1.713-2.112,1.713-2.277,0-.047-.023-.07-.07-.07h0ZM327.125,88.632c-1.328,1.789-2.262,2.684-2.801,2.684-.453,0-.68-.254-.68-.762,0-.867.584-2.004,1.752-3.41,1.168-1.406,2.111-2.109,2.83-2.109.352,0,.527.192.527.574,0,.547-.543,1.555-1.629,3.023h0ZM337.578,79.456c-.242,0-.469-.031-.68-.094l-4.852,7.781c-.75,1.203-1.125,2.098-1.125,2.684,0,.492.127.893.381,1.201.254.308.584.463.99.463.867,0,1.859-.426,2.977-1.277,1.5-1.141,2.25-2.301,2.25-3.48,0-.539-.139-.986-.416-1.342-.277-.355-.635-.533-1.072-.533-.367,0-.754.192-1.16.574-.406.383-1.02,1.137-1.84,2.262l5.262-8.309c-.289.047-.527.07-.715.07h0ZM334.936,89.212c-1.152,1.402-2.08,2.104-2.783,2.104-.406,0-.609-.207-.609-.621,0-.484.516-1.43,1.547-2.836,1.375-1.883,2.348-2.824,2.918-2.824.437,0,.656.262.656.785,0,.859-.576,1.99-1.729,3.393h0ZM343.649,79.386c-.18,0-.387-.031-.621-.094-.969,1.727-2.16,3.766-3.574,6.117-1.156,1.922-1.834,3.084-2.033,3.486-.199.402-.299.818-.299,1.248,0,.391.107.713.323.967.215.254.491.381.827.381.704,0,1.795-1.021,3.273-3.063l.505-.692c.078-.078.117-.141.117-.188,0-.039-.016-.062-.047-.07-.055,0-.102.039-.141.117-1.753,2.481-2.957,3.721-3.615,3.721-.297,0-.446-.176-.446-.527,0-.312.271-.949.814-1.91.543-.961,2.455-4.172,5.736-9.633-.25.094-.523.141-.82.141h0ZM345.5,82.198c-.266,0-.52.119-.762.357-.242.238-.363.486-.363.744,0,.352.176.527.527.527.273,0,.525-.119.756-.357.23-.238.346-.494.346-.768,0-.336-.168-.504-.504-.504h0ZM346.104,87.478c-.039,0-.078.039-.117.117-1.752,2.481-2.977,3.721-3.673,3.721-.368,0-.552-.176-.552-.527,0-.344.191-.832.574-1.465l2.66-4.371c-.383.055-.68.082-.891.082-.141,0-.332-.027-.574-.082l-1.828,3.105c-.539.922-.809,1.609-.809,2.062,0,.391.123.717.37.979s.553.393.921.393c.774,0,1.897-1.021,3.367-3.063l.504-.692c.07-.102.109-.164.117-.188,0-.047-.023-.07-.07-.07h0ZM349.965,82.796c-.266,0-.535.195-.809.586-.274.391-.477.859-.609,1.406-.469.594-.844,1.059-1.125,1.395l-.938,1.148c-.063-.031-.133-.047-.211-.047-.445,0-.877.277-1.295.832-.418.555-.627,1.125-.627,1.711,0,.508.158.912.475,1.213s.74.451,1.271.451c.938,0,1.748-.258,2.432-.773.684-.516,1.025-1.125,1.025-1.828,0-.336-.105-.75-.316-1.242-.414-.984-.621-1.703-.621-2.156,0-.18.023-.391.07-.633.977-.927,1.465-1.546,1.465-1.857,0-.137-.063-.205-.188-.205h0ZM347.639,90.079c-.59.762-1.213,1.143-1.869,1.143-.336,0-.617-.105-.844-.316-.227-.211-.34-.473-.34-.785,0-.289.111-.564.334-.826.223-.262.486-.428.791-.498.758-.164,1.137-.476,1.137-.938,0-.18-.074-.332-.223-.457.828-1.008,1.461-1.789,1.898-2.344-.031.234-.047.527-.047.879,0,.43.008.76.023.99.016.231.023.463.023.697,0,.875-.295,1.693-.885,2.455h0ZM358.315,87.478c-.055,0-.102.039-.141.117l-.211.258-.364.505c-1.408,1.972-2.418,2.958-3.028,2.958-.337,0-.505-.168-.505-.504,0-.289.383-1,1.148-2.133.687-1.016,1.031-1.793,1.031-2.332,0-.414-.119-.766-.357-1.055-.238-.289-.526-.434-.861-.434-.852,0-2.012,1.09-3.48,3.27,1.164-1.937,1.77-2.945,1.816-3.023,1.609-2.602,2.82-4.555,3.633-5.859-.281.078-.578.117-.891.117-.164,0-.363-.023-.598-.07l-1.781,3.023c-1.328,2.266-2.121,3.609-2.379,4.031-.484.867-.844,1.523-1.078,1.969l-1.723,3.117c.289-.047.519-.07.691-.07.164,0,.363.023.598.07,1.367-2.461,2.441-4.133,3.223-5.016.812-.922,1.453-1.383,1.922-1.383.32,0,.48.152.48.457,0,.258-.465,1.07-1.395,2.438-.594.883-.891,1.598-.891,2.145,0,.406.119.744.358,1.014.238.27.545.404.921.404.72,0,1.815-1.021,3.285-3.063l.504-.692c.078-.078.117-.149.117-.211,0-.031-.016-.047-.047-.047h0ZM364.244,87.49c-.063,0-.141.062-.235.187-1.791,2.41-3.304,3.615-4.54,3.615-.727,0-1.091-.336-1.091-1.008,0-.539.266-1.211.797-2.016,1.719-.344,2.945-.713,3.68-1.107.734-.394,1.102-.873,1.102-1.436,0-.242-.1-.447-.299-.615-.199-.168-.439-.252-.721-.252-.649,0-1.488.281-2.52.844-1.961,1.07-2.941,2.309-2.941,3.715,0,.594.186,1.088.557,1.482s.831.592,1.378.592c1.157,0,2.545-.998,4.164-2.996l.504-.632c.141-.179.211-.281.211-.304,0-.039-.016-.062-.047-.07h0ZM362.129,86.88c-.781.527-1.734.936-2.859,1.225.648-.914,1.31-1.658,1.986-2.232.676-.574,1.221-.861,1.635-.861.273,0,.41.125.41.375,0,.469-.391.967-1.172,1.494h0ZM374.199,79.409c-.25,0-.504-.039-.762-.117l-4.184,7.008c.133-.273.199-.519.199-.738,0-.469-.242-.703-.727-.703-.727,0-1.727.418-3,1.254-1.602,1.047-2.402,2.215-2.402,3.504,0,.539.141.986.422,1.342s.629.533,1.043.533c.664,0,1.68-.969,3.047-2.906-.281.555-.422,1.043-.422,1.465s.113.768.34,1.037c.227.27.52.404.88.404.704,0,1.795-1.021,3.273-3.063l.504-.692c.07-.102.109-.164.117-.188,0-.047-.023-.07-.07-.07-.039,0-.082.039-.129.117-1.705,2.481-2.914,3.721-3.626,3.721-.321,0-.481-.176-.481-.527,0-.344.387-1.176,1.16-2.496.766-1.297,2.613-4.273,5.543-8.93-.422.031-.664.047-.727.047h0ZM368.059,88.058c-1.523,2.172-2.598,3.258-3.223,3.258-.43,0-.645-.262-.645-.785,0-.859.576-1.99,1.729-3.393,1.152-1.402,2.08-2.104,2.783-2.104.383,0,.574.207.574.621,0,.43-.406,1.23-1.219,2.402h0ZM389.199,79.011c-.023,0-.109.078-.258.234l-.152.164c-3.773,4.192-6.652,6.738-8.637,7.635-.094.039-.141.086-.141.141,0,.047.031.07.094.07.266,0,1.059-.504,2.379-1.511,2.047-1.561,4.086-3.544,6.117-5.948-.547.859-1.652,2.293-3.316,4.301-2.711,3.274-4.332,5.688-4.863,7.242.617-.094,1.039-.141,1.266-.141.203,0,.445.031.727.094.273-1.063.682-2.116,1.225-3.16.543-1.043,1.525-2.663,2.947-4.86,1.773-2.744,2.66-4.151,2.66-4.221,0-.027-.016-.041-.047-.041h0ZM400.855,78.922c-.519-.378-1.16-.567-1.924-.567-1.228,0-2.349.376-3.361,1.129-1.013.753-1.519,1.585-1.519,2.498,0,.672.391,1.391,1.172,2.156-2.242.758-3.826,1.486-4.752,2.186-.926.699-1.389,1.522-1.389,2.467,0,.799.335,1.443,1.004,1.932.669.489,1.543.734,2.623.734,1.499,0,2.841-.461,4.027-1.385,1.186-.923,1.779-1.967,1.779-3.133,0-.523-.125-.996-.375-1.418-.25-.422-.742-.98-1.477-1.676,3.312-.976,4.969-2.152,4.969-3.527,0-.553-.259-1.018-.778-1.396h0ZM399.694,82.052c-.77.688-1.803,1.254-3.1,1.699-.5-.539-.813-.898-.938-1.078-.32-.453-.48-.894-.48-1.324,0-.748.379-1.409,1.138-1.982.759-.573,1.631-.86,2.617-.86.545,0,1.001.138,1.367.414.366.276.549.62.549,1.033,0,.711-.385,1.41-1.154,2.098h0ZM395.939,90.242c-.913.716-1.997,1.074-3.254,1.074-1.793,0-2.689-.705-2.689-2.115,0-2.023,1.766-3.68,5.297-4.969.797.867,1.258,1.387,1.383,1.559.422.609.633,1.242.633,1.898,0,.986-.456,1.837-1.369,2.553h0ZM411.471,79.352c-.512-.579-1.174-.869-1.986-.869-.649,0-1.43.192-2.344.575-.914.383-1.758.88-2.531,1.49-1.602,1.251-2.402,2.573-2.402,3.965,0,.764.224,1.374.674,1.83.449.456,1.049.684,1.799.684.938,0,1.965-.375,3.082-1.124,1.117-.75,2.058-1.695,2.824-2.834-1.016,2.181-2.576,4.215-4.682,6.102-2.106,1.887-3.865,2.831-5.279,2.831h-.164c-.195,0-.293.055-.293.164,0,.078.066.117.199.117.523,0,1.295-.203,2.314-.609,1.02-.406,1.982-.898,2.889-1.477,2.055-1.305,3.68-2.726,4.875-4.266,1.195-1.539,1.793-2.973,1.793-4.301,0-.939-.256-1.698-.768-2.278h0ZM409.848,83.851c-.711.844-1.555,1.555-2.531,2.133-.977.578-1.816.867-2.52.867-1.07,0-1.605-.504-1.605-1.512,0-1.273.752-2.711,2.256-4.312,1.504-1.601,2.857-2.402,4.061-2.402,1.148,0,1.723.664,1.723,1.992,0,1.063-.461,2.141-1.383,3.234h0ZM423.617,79.011c-.023,0-.109.078-.258.234l-.152.164c-3.773,4.192-6.652,6.738-8.637,7.635-.094.039-.141.086-.141.141,0,.047.031.07.094.07.266,0,1.059-.504,2.379-1.511,2.047-1.561,4.086-3.544,6.117-5.948-.547.859-1.652,2.293-3.316,4.301-2.711,3.274-4.332,5.688-4.863,7.242.617-.094,1.039-.141,1.266-.141.203,0,.445.031.727.094.273-1.063.682-2.116,1.225-3.16.543-1.043,1.525-2.663,2.947-4.86,1.773-2.744,2.66-4.151,2.66-4.221,0-.027-.016-.041-.047-.041h0Z"/></svg>